<svg width="25" height="25" viewBox="0 0 25 25" fill="none" xmlns="http://www.w3.org/2000/svg">
<path d="M24.4454 0.573569C23.7059 -0.165908 22.5114 -0.165908 21.7719 0.573569L12.5 9.82651L3.2281 0.554608C2.48862 -0.184869 1.29408 -0.184869 0.554608 0.554608C-0.184869 1.29408 -0.184869 2.48862 0.554608 3.2281L9.82651 12.5L0.554608 21.7719C-0.184869 22.5114 -0.184869 23.7059 0.554608 24.4454C1.29408 25.1849 2.48862 25.1849 3.2281 24.4454L12.5 15.1735L21.7719 24.4454C22.5114 25.1849 23.7059 25.1849 24.4454 24.4454C25.1849 23.7059 25.1849 22.5114 24.4454 21.7719L15.1735 12.5L24.4454 3.2281C25.1659 2.50759 25.1659 1.29408 24.4454 0.573569Z" fill="#A8AFB9"/>
</svg>
