<svg width="191" height="38" viewBox="0 0 191 38" fill="none" xmlns="http://www.w3.org/2000/svg">
<path d="M10.4189 1.6C4.77891 1.6 0.538906 5.12 0.538906 10.08C0.538906 15 4.77891 18.52 10.4189 18.52C16.0589 18.52 20.2989 15 20.2989 10.08C20.2989 5.12 16.0589 1.6 10.4189 1.6ZM10.4189 5.92C13.1389 5.92 15.1389 7.44 15.1389 10.08C15.1389 12.72 13.1389 14.24 10.4189 14.24C7.69891 14.24 5.65891 12.72 5.65891 10.08C5.65891 7.44 7.69891 5.92 10.4189 5.92ZM25.4189 0.52V19.04H30.7789V0.52H25.4189ZM6.05891 20.56V24.68H25.4989V26.88H6.13891V35.2H11.3389V30.72H30.7789V20.56H6.05891ZM6.13891 33.04V37.16H31.6989V33.04H6.13891ZM44.8958 2.52V5.8C44.8958 10.84 42.3758 15.8 36.1758 17.88L39.0158 22.08C46.0558 19.64 49.2558 13.16 49.2558 5.8V2.52H44.8958ZM45.9758 2.52V6.32C45.9758 13 49.1358 18.76 55.8158 21L58.5758 16.88C52.7758 15.08 50.2958 10.76 50.2958 6.32V2.52H45.9758ZM60.6158 0.52V22.4H65.9358V0.52H60.6158ZM64.4558 9.08V13.48H70.8558V9.08H64.4558ZM53.8558 23.24C46.1358 23.24 41.2958 25.92 41.2958 30.4C41.2958 34.92 46.1358 37.56 53.8558 37.56C61.5358 37.56 66.3758 34.92 66.3758 30.4C66.3758 25.92 61.5358 23.24 53.8558 23.24ZM53.8558 27.36C58.5758 27.36 61.0958 28.36 61.0958 30.4C61.0958 32.48 58.5758 33.44 53.8558 33.44C49.1358 33.44 46.5758 32.48 46.5758 30.4C46.5758 28.36 49.1358 27.36 53.8558 27.36ZM90.3327 1.04C81.8527 1.04 76.9327 3.28 76.9327 7.36C76.9327 11.44 81.8527 13.68 90.3327 13.68C98.7727 13.68 103.733 11.44 103.733 7.36C103.733 3.28 98.7727 1.04 90.3327 1.04ZM90.3327 4.92C95.6927 4.92 98.2127 5.72 98.2127 7.36C98.2127 9.08 95.6927 9.8 90.3327 9.8C84.9727 9.8 82.4527 9.08 82.4527 7.36C82.4527 5.72 84.9727 4.92 90.3327 4.92ZM73.5727 15.4V19.6H107.053V15.4H73.5727ZM77.4127 21.68V25.64H97.7727V27.52H77.4527V34.48H82.6927V31.2H103.013V21.68H77.4127ZM77.4527 33.32V37.32H103.973V33.32H77.4527ZM138.227 10.28V14.52H147.587V10.28H138.227ZM145.307 0.559999V27.6H150.627V0.559999H145.307ZM126.187 32.68V36.92H151.467V32.68H126.187ZM126.187 24.92V34.84H131.507V24.92H126.187ZM129.867 2.76C124.347 2.76 120.067 6.72 120.067 12.24C120.067 17.72 124.347 21.72 129.867 21.72C135.347 21.72 139.627 17.72 139.627 12.24C139.627 6.72 135.347 2.76 129.867 2.76ZM129.867 7.4C132.507 7.4 134.547 9.16 134.547 12.24C134.547 15.28 132.507 17.08 129.867 17.08C127.187 17.08 125.147 15.28 125.147 12.24C125.147 9.16 127.187 7.4 129.867 7.4ZM157.744 17.44V21.76H160.864C168.344 21.76 173.024 21.56 178.224 20.56L177.744 16.32C172.624 17.28 168.144 17.44 160.864 17.44H157.744ZM157.704 2.56V6.8H169.384V10H157.744V19.48H163.024V13.96H174.624V2.56H157.704ZM180.264 0.559999V23.04H185.584V0.559999H180.264ZM184.064 9.36V13.72H190.504V9.36H184.064ZM160.864 24.72V28.96H180.264V37.56H185.584V24.72H160.864Z" fill="#424242"/>
</svg>
